<svg xmlns="http://www.w3.org/2000/svg" viewBox="0 0 1200 630">
  <defs>
    <linearGradient id="bg" x1="0%" y1="0%" x2="100%" y2="100%">
      <stop offset="0%" style="stop-color:#667eea"/>
      <stop offset="100%" style="stop-color:#764ba2"/>
    </linearGradient>
  </defs>
  <!-- Background -->
  <rect width="1200" height="630" fill="url(#bg)"/>
  
  <!-- Decorative circles -->
  <circle cx="100" cy="100" r="150" fill="white" opacity="0.05"/>
  <circle cx="1100" cy="530" r="200" fill="white" opacity="0.05"/>
  
  <!-- Logo/Icon -->
  <g transform="translate(100, 165)">
    <!-- House icon -->
    <g fill="white">
      <path d="M150 0 L280 90 L280 250 L20 250 L20 90 Z"/>
      <path d="M150 -25 L310 100 L290 120 L150 25 L10 120 L-10 100 Z"/>
      <rect x="115" y="150" width="70" height="100" rx="4" fill="#667eea"/>
      <rect x="50" y="80" width="50" height="40" rx="4" fill="#667eea"/>
      <rect x="200" y="80" width="50" height="40" rx="4" fill="#667eea"/>
      <path d="M150 50 L158 70 L180 70 L162 84 L170 104 L150 90 L130 104 L138 84 L120 70 L142 70 Z" fill="#ffd700"/>
    </g>
  </g>
  
  <!-- Text -->
  <text x="420" y="280" font-family="Arial, sans-serif" font-size="90" font-weight="bold" fill="white">KvartaliEU</text>
  <text x="420" y="370" font-family="Arial, sans-serif" font-size="36" fill="white" opacity="0.9">Оценка на квартали и детски градини</text>
  <text x="420" y="420" font-family="Arial, sans-serif" font-size="36" fill="white" opacity="0.9">в България</text>
  
  <!-- Star rating -->
  <g transform="translate(420, 460)">
    <path d="M20 0 L26 12 L40 14 L30 24 L32 38 L20 32 L8 38 L10 24 L0 14 L14 12 Z" fill="#ffd700"/>
    <path d="M70 0 L76 12 L90 14 L80 24 L82 38 L70 32 L58 38 L60 24 L50 14 L64 12 Z" fill="#ffd700"/>
    <path d="M120 0 L126 12 L140 14 L130 24 L132 38 L120 32 L108 38 L110 24 L100 14 L114 12 Z" fill="#ffd700"/>
    <path d="M170 0 L176 12 L190 14 L180 24 L182 38 L170 32 L158 38 L160 24 L150 14 L164 12 Z" fill="#ffd700"/>
    <path d="M220 0 L226 12 L240 14 L230 24 L232 38 L220 32 L208 38 L210 24 L200 14 L214 12 Z" fill="#ffd700"/>
  </g>
  
  <!-- URL -->
  <text x="600" y="590" font-family="Arial, sans-serif" font-size="28" fill="white" opacity="0.7" text-anchor="middle">kvartali.eu</text>
</svg>
